<svg xmlns="http://www.w3.org/2000/svg" xmlns:xlink="http://www.w3.org/1999/xlink" xmlns:lucid="lucid" width="2758.7" height="1337.01"><g transform="translate(488.40964404267686 -1223.596692854192)" lucid:page-tab-id="0_0"><path d="M-487.4 1237.54a6 6 0 0 1 6-6h396.1a6 6 0 0 1 6 6v196.4a6 6 0 0 1-6 6h-396.1a6 6 0 0 1-6-6z" stroke="#000" stroke-width="2" fill="#fff"/><use xlink:href="#a" transform="matrix(1,0,0,1,-482.40964404267686,1236.543096140991) translate(20.521484375 87.375)"/><use xlink:href="#b" transform="matrix(1,0,0,1,-482.40964404267686,1236.543096140991) translate(148.2236328125 87.375)"/><use xlink:href="#c" transform="matrix(1,0,0,1,-482.40964404267686,1236.543096140991) translate(252.185546875 87.375)"/><use xlink:href="#d" transform="matrix(1,0,0,1,-482.40964404267686,1236.543096140991) translate(101.390625 125.12578124999999)"/><use xlink:href="#e" transform="matrix(1,0,0,1,-482.40964404267686,1236.543096140991) translate(177.587890625 125.12578124999999)"/><use xlink:href="#f" transform="matrix(1,0,0,1,-482.40964404267686,1236.543096140991) translate(229.689453125 125.12578124999999)"/><path d="M66 1237.54a6 6 0 0 1 6-6h396.1a6 6 0 0 1 6 6v196.4a6 6 0 0 1-6 6H72a6 6 0 0 1-6-6z" stroke="#000" stroke-width="2" fill="#fff"/><use xlink:href="#g" transform="matrix(1,0,0,1,70.99083122458809,1236.5430961409909) translate(2.9892578125 87.375)"/><use xlink:href="#h" transform="matrix(1,0,0,1,70.99083122458809,1236.5430961409909) translate(106.189453125 87.375)"/><use xlink:href="#i" transform="matrix(1,0,0,1,70.99083122458809,1236.5430961409909) translate(159.3828125 87.375)"/><use xlink:href="#j" transform="matrix(1,0,0,1,70.99083122458809,1236.5430961409909) translate(276.83984375 87.375)"/><use xlink:href="#k" transform="matrix(1,0,0,1,70.99083122458809,1236.5430961409909) translate(306.369140625 87.375)"/><use xlink:href="#l" transform="matrix(1,0,0,1,70.99083122458809,1236.5430961409909) translate(146.4462890625 125.12578124999999)"/><path d="M66 1571.84a6 6 0 0 1 6-6h396.1a6 6 0 0 1 6 6v196.4a6 6 0 0 1-6 6H72a6 6 0 0 1-6-6z" stroke="#000" stroke-width="2" fill="#fff"/><use xlink:href="#m" transform="matrix(1,0,0,1,70.99083122458809,1570.8387543181793) translate(22.5400390625 68.71875)"/><use xlink:href="#n" transform="matrix(1,0,0,1,70.99083122458809,1570.8387543181793) translate(100.3369140625 68.71875)"/><use xlink:href="#o" transform="matrix(1,0,0,1,70.99083122458809,1570.8387543181793) translate(236.82421875 68.71875)"/><use xlink:href="#p" transform="matrix(1,0,0,1,70.99083122458809,1570.8387543181793) translate(320.5625 68.71875)"/><use xlink:href="#q" transform="matrix(1,0,0,1,70.99083122458809,1570.8387543181793) translate(38.72021484375 106.46953124999999)"/><use xlink:href="#r" transform="matrix(1,0,0,1,70.99083122458809,1570.8387543181793) translate(150.81982421875 106.46953124999999)"/><use xlink:href="#s" transform="matrix(1,0,0,1,70.99083122458809,1570.8387543181793) translate(237.17333984375 106.46953124999999)"/><use xlink:href="#t" transform="matrix(1,0,0,1,70.99083122458809,1570.8387543181793) translate(9.552734375 144.22031249999998)"/><use xlink:href="#u" transform="matrix(1,0,0,1,70.99083122458809,1570.8387543181793) translate(100.552734375 144.22031249999998)"/><use xlink:href="#v" transform="matrix(1,0,0,1,70.99083122458809,1570.8387543181793) translate(161.693359375 144.22031249999998)"/><use xlink:href="#w" transform="matrix(1,0,0,1,70.99083122458809,1570.8387543181793) translate(253.962890625 144.22031249999998)"/><path d="M701 2357.22a6 6 0 0 1 6-6h396.1a6 6 0 0 1 6 6v196.4a6 6 0 0 1-6 6H707a6 6 0 0 1-6-6z" stroke="#000" stroke-width="2" fill="#fff"/><use xlink:href="#x" transform="matrix(1,0,0,1,706.0115451117379,2356.216475931861) translate(57.10302734375 87.375)"/><use xlink:href="#y" transform="matrix(1,0,0,1,706.0115451117379,2356.216475931861) translate(154.00634765625 87.375)"/><use xlink:href="#z" transform="matrix(1,0,0,1,706.0115451117379,2356.216475931861) translate(217.91455078125 87.375)"/><use xlink:href="#A" transform="matrix(1,0,0,1,706.0115451117379,2356.216475931861) translate(286.52001953125 87.375)"/><use xlink:href="#n" transform="matrix(1,0,0,1,706.0115451117379,2356.216475931861) translate(38.041015625 125.12578124999999)"/><use xlink:href="#B" transform="matrix(1,0,0,1,706.0115451117379,2356.216475931861) translate(174.5283203125 125.12578124999999)"/><use xlink:href="#C" transform="matrix(1,0,0,1,706.0115451117379,2356.216475931861) translate(237.73828125 125.12578124999999)"/><use xlink:href="#f" transform="matrix(1,0,0,1,706.0115451117379,2356.216475931861) translate(293.0390625 125.12578124999999)"/><path d="M664.4 1237.54a6 6 0 0 1 6-6h396.1a6 6 0 0 1 6 6v196.4a6 6 0 0 1-6 6H670.4a6 6 0 0 1-6-6z" stroke="#000" stroke-width="2" fill="#fff"/><use xlink:href="#D" transform="matrix(1,0,0,1,669.3908509496367,1236.543096140991) translate(58.7470703125 68.71875)"/><use xlink:href="#E" transform="matrix(1,0,0,1,669.3908509496367,1236.543096140991) translate(205.5810546875 68.71875)"/><use xlink:href="#F" transform="matrix(1,0,0,1,669.3908509496367,1236.543096140991) translate(294.3720703125 68.71875)"/><use xlink:href="#G" transform="matrix(1,0,0,1,669.3908509496367,1236.543096140991) translate(13.35498046875 106.46953124999999)"/><use xlink:href="#H" transform="matrix(1,0,0,1,669.3908509496367,1236.543096140991) translate(152.77490234375 106.46953124999999)"/><use xlink:href="#I" transform="matrix(1,0,0,1,669.3908509496367,1236.543096140991) translate(219.01904296875 106.46953124999999)"/><use xlink:href="#J" transform="matrix(1,0,0,1,669.3908509496367,1236.543096140991) translate(278.75048828125 106.46953124999999)"/><use xlink:href="#F" transform="matrix(1,0,0,1,669.3908509496367,1236.543096140991) translate(339.76416015625 106.46953124999999)"/><use xlink:href="#K" transform="matrix(1,0,0,1,669.3908509496367,1236.543096140991) translate(87.52099609375 144.22031249999998)"/><use xlink:href="#L" transform="matrix(1,0,0,1,669.3908509496367,1236.543096140991) translate(234.20263671875 144.22031249999998)"/><path d="M931.4 1921.76a6 6 0 0 1 6-6h396.1a6 6 0 0 1 6 6v196.4a6 6 0 0 1-6 6H937.4a6 6 0 0 1-6-6z" stroke="#000" stroke-width="2" fill="#fff"/><use xlink:href="#M" transform="matrix(1,0,0,1,936.3932272859626,1920.7638198906654) translate(19.68359375 68.71875)"/><use xlink:href="#b" transform="matrix(1,0,0,1,936.3932272859626,1920.7638198906654) translate(76.5078125 68.71875)"/><use xlink:href="#N" transform="matrix(1,0,0,1,936.3932272859626,1920.7638198906654) translate(180.4697265625 68.71875)"/><use xlink:href="#H" transform="matrix(1,0,0,1,936.3932272859626,1920.7638198906654) translate(53.224609375 106.46953124999999)"/><use xlink:href="#h" transform="matrix(1,0,0,1,936.3932272859626,1920.7638198906654) translate(119.46875 106.46953124999999)"/><use xlink:href="#O" transform="matrix(1,0,0,1,936.3932272859626,1920.7638198906654) translate(172.662109375 106.46953124999999)"/><use xlink:href="#P" transform="matrix(1,0,0,1,936.3932272859626,1920.7638198906654) translate(266.8994140625 106.46953124999999)"/><use xlink:href="#Q" transform="matrix(1,0,0,1,936.3932272859626,1920.7638198906654) translate(134.82373046875 144.22031249999998)"/><path d="M664.4 1571.84a6 6 0 0 1 6-6h396.1a6 6 0 0 1 6 6v196.4a6 6 0 0 1-6 6H670.4a6 6 0 0 1-6-6z" stroke="#000" stroke-width="2" fill="#fff"/><use xlink:href="#R" transform="matrix(1,0,0,1,669.3908509496367,1570.8387543181793) translate(16.3193359375 68.71875)"/><use xlink:href="#S" transform="matrix(1,0,0,1,669.3908509496367,1570.8387543181793) translate(155.142578125 68.71875)"/><use xlink:href="#T" transform="matrix(1,0,0,1,669.3908509496367,1570.8387543181793) translate(206.330078125 68.71875)"/><use xlink:href="#U" transform="matrix(1,0,0,1,669.3908509496367,1570.8387543181793) translate(291.9091796875 68.71875)"/><use xlink:href="#F" transform="matrix(1,0,0,1,669.3908509496367,1570.8387543181793) translate(336.7998046875 68.71875)"/><use xlink:href="#O" transform="matrix(1,0,0,1,669.3908509496367,1570.8387543181793) translate(24.3935546875 106.46953124999999)"/><use xlink:href="#V" transform="matrix(1,0,0,1,669.3908509496367,1570.8387543181793) translate(118.630859375 106.46953124999999)"/><use xlink:href="#d" transform="matrix(1,0,0,1,669.3908509496367,1570.8387543181793) translate(251.9443359375 106.46953124999999)"/><use xlink:href="#W" transform="matrix(1,0,0,1,669.3908509496367,1570.8387543181793) translate(328.1416015625 106.46953124999999)"/><use xlink:href="#X" transform="matrix(1,0,0,1,669.3908509496367,1570.8387543181793) translate(134.60791015625 144.22031249999998)"/><path d="M432.12 1921.76a6 6 0 0 1 6-6h396.1a6 6 0 0 1 6 6v196.4a6 6 0 0 1-6 6h-396.1a6 6 0 0 1-6-6z" stroke="#000" stroke-width="2" fill="#fff"/><g><use xlink:href="#Y" transform="matrix(1,0,0,1,437.120491047304,1920.7638198906657) translate(11.41259765625 68.71875)"/><use xlink:href="#Z" transform="matrix(1,0,0,1,437.120491047304,1920.7638198906657) translate(142.50439453125 68.71875)"/><use xlink:href="#aa" transform="matrix(1,0,0,1,437.120491047304,1920.7638198906657) translate(254.09619140625 68.71875)"/><use xlink:href="#ab" transform="matrix(1,0,0,1,437.120491047304,1920.7638198906657) translate(66.63720703125 106.46953124999999)"/><use xlink:href="#h" transform="matrix(1,0,0,1,437.120491047304,1920.7638198906657) translate(187.64892578125 106.46953124999999)"/><use xlink:href="#ac" transform="matrix(1,0,0,1,437.120491047304,1920.7638198906657) translate(240.84228515625 106.46953124999999)"/><use xlink:href="#ad" transform="matrix(1,0,0,1,437.120491047304,1920.7638198906657) translate(79.61181640625 144.22031249999998)"/><use xlink:href="#I" transform="matrix(1,0,0,1,437.120491047304,1920.7638198906657) translate(222.07861328125 144.22031249999998)"/><use xlink:href="#ae" transform="matrix(1,0,0,1,437.120491047304,1920.7638198906657) translate(281.81005859375 144.22031249999998)"/></g><path d="M868.44 1442.44v104.9" stroke="#3a414a" stroke-width="3" stroke-linejoin="round" fill="none"/><path d="M869.92 1442.48h-2.95v-1.55h2.95z" stroke="#3a414a" stroke-width=".05" fill="#3a414a"/><path d="M868.44 1561.84l-7.5-13h15z" stroke="#3a414a" stroke-width="3" fill="#3a414a"/><path d="M636.17 1913.26V1869a24 24 0 0 1 24-24h184.27a24 24 0 0 0 24-24v-28.28" stroke="#3a414a" stroke-width="3" fill="none"/><path d="M637.65 1914.76h-2.95v-1.54h2.95z" stroke="#3a414a" stroke-width=".05" fill="#3a414a"/><path d="M868.44 1778.23l7.5 13h-15z" stroke="#3a414a" stroke-width="3" fill="#3a414a"/><path d="M1135.44 1913.26v-43.83a24 24 0 0 0-24-24h-219a24 24 0 0 1-24-24v-26.35" stroke="#3a414a" stroke-width="3" fill="none"/><path d="M1136.92 1914.76h-2.95v-1.54h2.95z" stroke="#3a414a" stroke-width=".05" fill="#3a414a"/><path d="M868.44 1780.6l7.5 12.98h-15z" stroke="#3a414a" stroke-width="3" fill="#3a414a"/><path d="M476.6 1670.04h169.3" stroke="#3a414a" stroke-width="3" fill="none"/><path d="M476.63 1671.5h-1.54v-2.94h1.53z" stroke="#3a414a" stroke-width=".05" fill="#3a414a"/><path d="M660.4 1670.04l-13 7.5v-15z" stroke="#3a414a" stroke-width="3" fill="#3a414a"/><path d="M1262.8 1571.84a6 6 0 0 1 6-6h396.1a6 6 0 0 1 6 6v196.4a6 6 0 0 1-6 6h-396.1a6 6 0 0 1-6-6z" stroke="#000" stroke-width="2" fill="#fff"/><g><use xlink:href="#af" transform="matrix(1,0,0,1,1267.7908706746853,1570.8387543181793) translate(68.04638671875 106.03125)"/><use xlink:href="#ag" transform="matrix(1,0,0,1,1267.7908706746853,1570.8387543181793) translate(201.90576171875 106.03125)"/></g><path d="M1262.8 1230.6a6 6 0 0 1 6-6h396.1a6 6 0 0 1 6 6V1427a6 6 0 0 1-6 6h-396.1a6 6 0 0 1-6-6z" stroke="#000" stroke-width="2" fill="#fff"/><g><use xlink:href="#ah" transform="matrix(1,0,0,1,1267.7908706746853,1229.596692854192) translate(58.65185546875 68.71875)"/><use xlink:href="#ai" transform="matrix(1,0,0,1,1267.7908706746853,1229.596692854192) translate(111.81982421875 68.71875)"/><use xlink:href="#c" transform="matrix(1,0,0,1,1267.7908706746853,1229.596692854192) translate(214.05517578125 68.71875)"/><use xlink:href="#aj" transform="matrix(1,0,0,1,1267.7908706746853,1229.596692854192) translate(11.939453125 106.46953124999999)"/><use xlink:href="#ak" transform="matrix(1,0,0,1,1267.7908706746853,1229.596692854192) translate(134.3603515625 106.46953124999999)"/><use xlink:href="#o" transform="matrix(1,0,0,1,1267.7908706746853,1229.596692854192) translate(210.9765625 106.46953124999999)"/><use xlink:href="#al" transform="matrix(1,0,0,1,1267.7908706746853,1229.596692854192) translate(294.71484375 106.46953124999999)"/><use xlink:href="#am" transform="matrix(1,0,0,1,1267.7908706746853,1229.596692854192) translate(120.23046875 144.22031249999998)"/><use xlink:href="#an" transform="matrix(1,0,0,1,1267.7908706746853,1229.596692854192) translate(219.837890625 144.22031249999998)"/></g><path d="M1861.2 1571.84a6 6 0 0 1 6-6h396.1a6 6 0 0 1 6 6v196.4a6 6 0 0 1-6 6h-396.1a6 6 0 0 1-6-6z" stroke="#000" stroke-width="2" fill="#fff"/><g><use xlink:href="#ao" transform="matrix(1,0,0,1,1866.1908903997337,1570.8387543181793) translate(22.83837890625 87.375)"/><use xlink:href="#ap" transform="matrix(1,0,0,1,1866.1908903997337,1570.8387543181793) translate(108.44287109375 87.375)"/><use xlink:href="#aq" transform="matrix(1,0,0,1,1866.1908903997337,1570.8387543181793) translate(174.68701171875 87.375)"/><use xlink:href="#ar" transform="matrix(1,0,0,1,1866.1908903997337,1570.8387543181793) translate(314.70361328125 87.375)"/><use xlink:href="#as" transform="matrix(1,0,0,1,1866.1908903997337,1570.8387543181793) translate(18.05224609375 125.12578124999999)"/><use xlink:href="#ak" transform="matrix(1,0,0,1,1866.1908903997337,1570.8387543181793) translate(79.11669921875 125.12578124999999)"/><use xlink:href="#at" transform="matrix(1,0,0,1,1866.1908903997337,1570.8387543181793) translate(155.73291015625 125.12578124999999)"/><use xlink:href="#U" transform="matrix(1,0,0,1,1866.1908903997337,1570.8387543181793) translate(210.05615234375 125.12578124999999)"/><use xlink:href="#au" transform="matrix(1,0,0,1,1866.1908903997337,1570.8387543181793) translate(254.94677734375 125.12578124999999)"/></g><path d="M-76.8 1335.74H47.5" stroke="#3a414a" stroke-width="3" fill="none"/><path d="M-76.77 1337.2h-1.54v-2.94h1.53z" stroke="#3a414a" stroke-width=".05" fill="#3a414a"/><path d="M62 1335.74l-13 7.5v-15z" stroke="#3a414a" stroke-width="3" fill="#3a414a"/><path d="M1075 1670.04h169.3" stroke="#3a414a" stroke-width="3" fill="none"/><path d="M1075.03 1671.5h-1.54v-2.94h1.53z" stroke="#3a414a" stroke-width=".05" fill="#3a414a"/><path d="M1258.8 1670.04l-13 7.5v-15z" stroke="#3a414a" stroke-width="3" fill="#3a414a"/><path d="M1466.84 1563.34v-111.86" stroke="#3a414a" stroke-width="3" fill="none"/><path d="M1468.32 1564.84h-2.95v-1.54h2.95z" stroke="#3a414a" stroke-width=".05" fill="#3a414a"/><path d="M1466.84 1437l7.5 12.98h-15z" stroke="#3a414a" stroke-width="3" fill="#3a414a"/><path d="M1861.2 1921.76a6 6 0 0 1 6-6h396.1a6 6 0 0 1 6 6v196.4a6 6 0 0 1-6 6h-396.1a6 6 0 0 1-6-6z" stroke="#000" stroke-width="2" fill="#fff"/><g><use xlink:href="#av" transform="matrix(1,0,0,1,1866.190890399734,1920.7638198906657) translate(40.8212890625 68.71875)"/><use xlink:href="#aw" transform="matrix(1,0,0,1,1866.190890399734,1920.7638198906657) translate(181.2822265625 68.71875)"/><use xlink:href="#ax" transform="matrix(1,0,0,1,1866.190890399734,1920.7638198906657) translate(270.314453125 68.71875)"/><use xlink:href="#ay" transform="matrix(1,0,0,1,1866.190890399734,1920.7638198906657) translate(7.17236328125 106.46953124999999)"/><use xlink:href="#az" transform="matrix(1,0,0,1,1866.190890399734,1920.7638198906657) translate(144.34521484375 106.46953124999999)"/><use xlink:href="#S" transform="matrix(1,0,0,1,1866.190890399734,1920.7638198906657) translate(192.52392578125 106.46953124999999)"/><use xlink:href="#ai" transform="matrix(1,0,0,1,1866.190890399734,1920.7638198906657) translate(243.71142578125 106.46953124999999)"/><use xlink:href="#F" transform="matrix(1,0,0,1,1866.190890399734,1920.7638198906657) translate(345.94677734375 106.46953124999999)"/><use xlink:href="#aA" transform="matrix(1,0,0,1,1866.190890399734,1920.7638198906657) translate(96.92822265625 144.22031249999998)"/><use xlink:href="#s" transform="matrix(1,0,0,1,1866.190890399734,1920.7638198906657) translate(178.96533203125 144.22031249999998)"/></g><path d="M1673.4 1328.8h367.84a24 24 0 0 1 24 24v194.55" stroke="#3a414a" stroke-width="3" fill="none"/><path d="M1673.43 1330.27h-1.54v-2.95h1.53z" stroke="#3a414a" stroke-width=".05" fill="#3a414a"/><path d="M2065.24 1561.84l-7.5-13h15z" stroke="#3a414a" stroke-width="3" fill="#3a414a"/><path d="M2065.24 1776.73v120.54" stroke="#3a414a" stroke-width="3" fill="none"/><path d="M2066.72 1776.77h-2.95v-1.54h2.95z" stroke="#3a414a" stroke-width=".05" fill="#3a414a"/><path d="M2065.24 1911.76l-7.5-13h15z" stroke="#3a414a" stroke-width="3" fill="#3a414a"/><path d="M1858.7 2019.96h-14.5a24 24 0 0 0-24 24v183.7a24 24 0 0 1-24 24H660.16a24 24 0 0 1-24-24v-85" stroke="#3a414a" stroke-width="3" fill="none"/><path d="M1860.2 2021.43h-1.55v-2.95h1.54z" stroke="#3a414a" stroke-width=".05" fill="#3a414a"/><path d="M636.17 2128.16l7.5 13h-15z" stroke="#3a414a" stroke-width="3" fill="#3a414a"/><path d="M-283.36 1442.43v988.98a24 24 0 0 0 24 24h941.88" stroke="#3a414a" stroke-width="3" fill="none"/><path d="M-281.88 1442.47h-2.95v-1.54h2.95z" stroke="#3a414a" stroke-width=".05" fill="#3a414a"/><path d="M697 2455.4l-12.98 7.5v-15z" stroke="#3a414a" stroke-width="3" fill="#3a414a"/><path d="M2065.24 2126.66v304.75a24 24 0 0 1-24 24H1127.6" stroke="#3a414a" stroke-width="3" fill="none"/><path d="M2066.72 2126.7h-2.95v-1.54h2.95z" stroke="#3a414a" stroke-width=".05" fill="#3a414a"/><path d="M1113.1 2455.4l13-7.5v15z" stroke="#3a414a" stroke-width="3" fill="#3a414a"/><path d="M270.04 1442.43v104.92" stroke="#3a414a" stroke-width="3" fill="none"/><path d="M271.52 1442.47h-2.95v-1.54h2.95z" stroke="#3a414a" stroke-width=".05" fill="#3a414a"/><path d="M270.04 1561.84l-7.5-13h15z" stroke="#3a414a" stroke-width="3" fill="#3a414a"/><path d="M1466.84 1776.73v394.42a24 24 0 0 1-24 24H660.17a24 24 0 0 1-24-24v-28.5" stroke="#3a414a" stroke-width="3" fill="none"/><path d="M1468.32 1776.77h-2.95v-1.54h2.95z" stroke="#3a414a" stroke-width=".05" fill="#3a414a"/><path d="M636.17 2128.16l7.5 13h-15z" stroke="#3a414a" stroke-width="3" fill="#3a414a"/><defs><path d="M180 0v-1490h510c348 0 508 194 508 460 0 198-88 351-276 417L1256 0h-220L726-579c-117 2-238 0-356 1V0H180zm190-747h312c235 0 327-108 327-283 0-177-92-293-329-293H370v576" id="aB"/><path d="M628 24c-324 0-524-230-524-574 0-343 198-582 503-582 237 0 487 146 487 559v75H286c9 234 145 362 343 362 132 0 231-58 273-172l174 48C1024-91 857 24 628 24zM287-650h624c-17-190-120-322-304-322-192 0-309 151-320 322" id="aC"/><path d="M611 442c-248 0-391-105-460-228l146-94c47 65 117 165 314 165 178 0 307-82 307-266v-224h-17C863-141 792-18 576-18c-268 0-472-195-472-546 0-346 197-568 476-568 216 0 288 133 326 193h17v-179h175V29c0 289-215 413-487 413zm-5-620c203 0 314-146 314-390 0-237-108-403-314-403-213 0-319 180-319 403 0 230 109 390 319 390" id="aD"/><path d="M158 0v-1118h180V0H158zm91-1301c-68 0-125-53-125-119s57-119 125-119c69 0 126 53 126 119s-57 119-126 119" id="aE"/><path d="M538 24C308 24 148-78 108-271l171-41c32 123 123 178 257 178 156 0 256-77 256-169 0-77-54-128-164-154l-186-44c-203-48-300-148-300-305 0-192 176-326 414-326 230 0 351 112 402 269l-163 42c-31-80-94-158-238-158-133 0-233 69-233 162 0 83 57 129 188 160l169 40c203 48 298 149 298 302 0 196-179 339-441 339" id="aF"/><path d="M598-1118v154H368v674c0 100 37 144 132 144 23 0 62-6 92-12L629-6c-37 13-88 20-134 20-193 0-307-107-307-290v-688H20v-154h168v-266h180v266h230" id="aG"/><path d="M158 0v-1118h174v172h12c41-113 157-188 290-188 26 0 70 2 91 3v181c-11-2-60-10-108-10-161 0-279 109-279 260V0H158" id="aH"/><path d="M471 26C259 26 90-98 90-318c0-256 228-303 435-329 202-27 287-16 287-108 0-139-79-219-234-219-161 0-248 86-283 164l-173-57c86-203 278-265 451-265 150 0 419 46 419 395V0H815v-152h-12C765-73 660 26 471 26zm31-159c199 0 310-134 310-271v-155c-30 35-226 55-295 64-131 17-246 59-246 186 0 116 97 176 231 176" id="aI"/><g id="a"><use transform="matrix(0.0126953125,0,0,0.0126953125,0,0)" xlink:href="#aB"/><use transform="matrix(0.0126953125,0,0,0.0126953125,16.3515625,0)" xlink:href="#aC"/><use transform="matrix(0.0126953125,0,0,0.0126953125,31.509765625,0)" xlink:href="#aD"/><use transform="matrix(0.0126953125,0,0,0.0126953125,47.455078125,0)" xlink:href="#aE"/><use transform="matrix(0.0126953125,0,0,0.0126953125,53.751953125,0)" xlink:href="#aF"/><use transform="matrix(0.0126953125,0,0,0.0126953125,67.4755859375,0)" xlink:href="#aG"/><use transform="matrix(0.0126953125,0,0,0.0126953125,75.9814453125,0)" xlink:href="#aH"/><use transform="matrix(0.0126953125,0,0,0.0126953125,85.76953125,0)" xlink:href="#aI"/><use transform="matrix(0.0126953125,0,0,0.0126953125,100.369140625,0)" xlink:href="#aF"/><use transform="matrix(0.0126953125,0,0,0.0126953125,114.0927734375,0)" xlink:href="#aE"/></g><path d="M338-1490V0H158v-1490h180" id="aJ"/><path d="M409 0L70-1118h191c89 329 165 560 243 925 75-353 154-601 240-925h192c85 325 161 564 235 922 77-354 157-598 244-922h191L1267 0h-179c-86-307-176-590-250-913C763-588 675-308 588 0H409" id="aK"/><path d="M338-670V0H158v-1118h173l1 207c72-158 192-221 342-221 226 0 378 139 378 422V0H872v-695c0-172-96-275-252-275-161 0-282 109-282 300" id="aL"/><g id="b"><use transform="matrix(0.0126953125,0,0,0.0126953125,0,0)" xlink:href="#aH"/><use transform="matrix(0.0126953125,0,0,0.0126953125,9.3564453125,0)" xlink:href="#aC"/><use transform="matrix(0.0126953125,0,0,0.0126953125,24.5146484375,0)" xlink:href="#aJ"/><use transform="matrix(0.0126953125,0,0,0.0126953125,30.8115234375,0)" xlink:href="#aI"/><use transform="matrix(0.0126953125,0,0,0.0126953125,45.4111328125,0)" xlink:href="#aK"/><use transform="matrix(0.0126953125,0,0,0.0126953125,66.6884765625,0)" xlink:href="#aI"/><use transform="matrix(0.0126953125,0,0,0.0126953125,81.2880859375,0)" xlink:href="#aL"/></g><path d="M158 0v-1490h180v865h22l478-493h223L593-638 1096 0H865L456-523 338-412V0H158" id="aM"/><path d="M338-670V0H158v-1490h180v566c73-149 190-208 336-208 226 0 379 139 379 422V0H872v-695c0-172-96-275-252-275-161 0-282 109-282 300" id="aN"/><g id="c"><use transform="matrix(0.0126953125,0,0,0.0126953125,0,0)" xlink:href="#aM"/><use transform="matrix(0.0126953125,0,0,0.0126953125,13.685546875,0)" xlink:href="#aC"/><use transform="matrix(0.0126953125,0,0,0.0126953125,28.84375,0)" xlink:href="#aF"/><use transform="matrix(0.0126953125,0,0,0.0126953125,42.5673828125,0)" xlink:href="#aC"/><use transform="matrix(0.0126953125,0,0,0.0126953125,57.7255859375,0)" xlink:href="#aN"/><use transform="matrix(0.0126953125,0,0,0.0126953125,73.099609375,0)" xlink:href="#aI"/><use transform="matrix(0.0126953125,0,0,0.0126953125,87.69921875,0)" xlink:href="#aG"/><use transform="matrix(0.0126953125,0,0,0.0126953125,96.33203125,0)" xlink:href="#aI"/><use transform="matrix(0.0126953125,0,0,0.0126953125,110.931640625,0)" xlink:href="#aL"/></g><path d="M537 14c-226 0-379-139-379-422v-710h180v695c0 172 97 275 253 275 160 0 281-109 281-300v-670h181V0H879v-209C806-46 684 14 537 14" id="aO"/><g id="d"><use transform="matrix(0.0126953125,0,0,0.0126953125,0,0)" xlink:href="#aO"/><use transform="matrix(0.0126953125,0,0,0.0126953125,15.3740234375,0)" xlink:href="#aL"/><use transform="matrix(0.0126953125,0,0,0.0126953125,30.7353515625,0)" xlink:href="#aG"/><use transform="matrix(0.0126953125,0,0,0.0126953125,39.2412109375,0)" xlink:href="#aO"/><use transform="matrix(0.0126953125,0,0,0.0126953125,54.615234375,0)" xlink:href="#aM"/></g><path d="M677 24c-213 0-288-135-325-197h-20V0H158v-1490h180v551h14c37-59 106-193 324-193 279 0 474 222 474 576 0 356-194 580-473 580zm-27-161c209 0 317-186 317-421 0-232-105-413-317-413-206 0-314 166-314 413 0 249 111 421 314 421" id="aP"/><g id="e"><use transform="matrix(0.0126953125,0,0,0.0126953125,0,0)" xlink:href="#aM"/><use transform="matrix(0.0126953125,0,0,0.0126953125,14.26953125,0)" xlink:href="#aI"/><use transform="matrix(0.0126953125,0,0,0.0126953125,28.869140625,0)" xlink:href="#aP"/></g><path d="M158 0v-1118h175l1 205c55-151 181-225 313-225 147 0 245 90 285 228 53-141 190-228 352-228 194 0 352 125 352 384V0h-181v-749c0-161-105-225-225-225-151 0-243 103-243 244V0H807v-767c0-124-93-207-219-207-131 0-250 92-250 270V0H158" id="aQ"/><g id="f"><use transform="matrix(0.0126953125,0,0,0.0126953125,0,0)" xlink:href="#aI"/><use transform="matrix(0.0126953125,0,0,0.0126953125,14.599609375,0)" xlink:href="#aD"/><use transform="matrix(0.0126953125,0,0,0.0126953125,30.544921875,0)" xlink:href="#aI"/><use transform="matrix(0.0126953125,0,0,0.0126953125,45.14453125,0)" xlink:href="#aQ"/></g><path d="M180 0v-1490h528c311 0 458 177 458 395 0 191-114 278-244 313v14c139 9 302 137 302 371 0 225-148 397-499 397H180zm190-168h350c232 0 321-102 321-231 0-149-120-277-311-277H370v508zm0-668h328c160 0 286-101 286-255 0-129-87-231-280-231H370v486" id="aR"/><path d="M678-1118v154H420V0H240v-964H20v-154h220v-149c0-194 155-293 318-293 85 0 141 18 168 30l-50 154c-19-6-47-17-97-17-111 0-159 58-159 166v109h258" id="aS"/><g id="g"><use transform="matrix(0.0126953125,0,0,0.0126953125,0,0)" xlink:href="#aR"/><use transform="matrix(0.0126953125,0,0,0.0126953125,17.01171875,0)" xlink:href="#aH"/><use transform="matrix(0.0126953125,0,0,0.0126953125,27.2060546875,0)" xlink:href="#aE"/><use transform="matrix(0.0126953125,0,0,0.0126953125,33.5029296875,0)" xlink:href="#aC"/><use transform="matrix(0.0126953125,0,0,0.0126953125,48.6611328125,0)" xlink:href="#aS"/><use transform="matrix(0.0126953125,0,0,0.0126953125,58.2841796875,0)" xlink:href="#aE"/><use transform="matrix(0.0126953125,0,0,0.0126953125,64.5810546875,0)" xlink:href="#aL"/><use transform="matrix(0.0126953125,0,0,0.0126953125,79.9423828125,0)" xlink:href="#aD"/></g><path d="M577 24c-279 0-473-224-473-580 0-354 195-576 474-576 218 0 287 134 324 193h14v-551h180V0H922v-173h-20C865-111 790 24 577 24zm27-161c203 0 314-172 314-421 0-247-108-413-314-413-212 0-317 181-317 413 0 235 108 421 317 421" id="aT"/><g id="h"><use transform="matrix(0.0126953125,0,0,0.0126953125,0,0)" xlink:href="#aT"/><use transform="matrix(0.0126953125,0,0,0.0126953125,15.919921875,0)" xlink:href="#aI"/><use transform="matrix(0.0126953125,0,0,0.0126953125,30.51953125,0)" xlink:href="#aL"/></g><path d="M784 20c-382 0-662-292-662-764 0-473 280-766 662-766s660 293 660 766c0 472-278 764-660 764zm0-176c266 0 475-207 475-588 0-383-209-590-475-590-268 0-477 208-477 590 0 380 209 588 477 588" id="aU"/><g id="i"><use transform="matrix(0.0126953125,0,0,0.0126953125,0,0)" xlink:href="#aU"/><use transform="matrix(0.0126953125,0,0,0.0126953125,19.880859375,0)" xlink:href="#aH"/><use transform="matrix(0.0126953125,0,0,0.0126953125,30.0751953125,0)" xlink:href="#aE"/><use transform="matrix(0.0126953125,0,0,0.0126953125,36.3720703125,0)" xlink:href="#aC"/><use transform="matrix(0.0126953125,0,0,0.0126953125,51.5302734375,0)" xlink:href="#aL"/><use transform="matrix(0.0126953125,0,0,0.0126953125,66.8916015625,0)" xlink:href="#aG"/><use transform="matrix(0.0126953125,0,0,0.0126953125,75.5244140625,0)" xlink:href="#aI"/><use transform="matrix(0.0126953125,0,0,0.0126953125,90.1240234375,0)" xlink:href="#aF"/><use transform="matrix(0.0126953125,0,0,0.0126953125,103.84765625,0)" xlink:href="#aE"/></g><g id="j"><use transform="matrix(0.0126953125,0,0,0.0126953125,0,0)" xlink:href="#aT"/><use transform="matrix(0.0126953125,0,0,0.0126953125,15.919921875,0)" xlink:href="#aE"/></g><path d="M180 0v-1490h510c348 0 508 209 508 474 0 266-160 477-507 477H370V0H180zm190-706h312c236 0 327-133 327-310 0-176-91-307-329-307H370v617" id="aV"/><path d="M657 26c-323 0-524-166-541-416h195c15 169 171 246 346 246 202 0 356-106 356-265 5-203-294-238-475-293-239-73-380-191-380-389 0-252 224-419 512-419 294 0 499 171 508 396H992c-17-145-151-228-328-228-193 0-321 102-321 242 0 156 175 211 284 241l149 41c160 44 422 134 422 412 0 244-197 432-541 432" id="aW"/><path d="M180 0v-1490h190c0 262 1 526-3 784 217-279 467-523 702-784h249L716-845 1319 0h-225L585-716 370-489V0H180" id="aX"/><g id="k"><use transform="matrix(0.0126953125,0,0,0.0126953125,0,0)" xlink:href="#aV"/><use transform="matrix(0.0126953125,0,0,0.0126953125,16.60546875,0)" xlink:href="#aU"/><use transform="matrix(0.0126953125,0,0,0.0126953125,36.486328125,0)" xlink:href="#aW"/><use transform="matrix(0.0126953125,0,0,0.0126953125,53.16796875,0)" xlink:href="#aX"/><use transform="matrix(0.0126953125,0,0,0.0126953125,69.7607421875,0)" xlink:href="#aU"/></g><path d="M613 24c-304 0-509-231-509-576 0-350 205-580 509-580 216 0 392 114 453 309l-173 49c-33-115-133-197-280-197-223 0-326 196-326 419 0 220 103 415 326 415 150 0 252-85 285-206l172 49C1010-95 832 24 613 24" id="aY"/><g id="l"><use transform="matrix(0.0126953125,0,0,0.0126953125,0,0)" xlink:href="#aP"/><use transform="matrix(0.0126953125,0,0,0.0126953125,15.919921875,0)" xlink:href="#aC"/><use transform="matrix(0.0126953125,0,0,0.0126953125,31.078125,0)" xlink:href="#aL"/><use transform="matrix(0.0126953125,0,0,0.0126953125,46.439453125,0)" xlink:href="#aY"/><use transform="matrix(0.0126953125,0,0,0.0126953125,61.546875,0)" xlink:href="#aI"/><use transform="matrix(0.0126953125,0,0,0.0126953125,76.146484375,0)" xlink:href="#aL"/><use transform="matrix(0.0126953125,0,0,0.0126953125,91.5078125,0)" xlink:href="#aI"/></g><path d="M158 418v-1536h174v179h20c37-59 106-193 324-193 279 0 474 222 474 576 0 356-194 580-473 580-213 0-288-135-325-197h-14v591H158zm492-555c209 0 317-186 317-421 0-232-105-413-317-413-206 0-314 166-314 413 0 249 111 421 314 421" id="aZ"/><g id="m"><use transform="matrix(0.0126953125,0,0,0.0126953125,0,0)" xlink:href="#aB"/><use transform="matrix(0.0126953125,0,0,0.0126953125,16.60546875,0)" xlink:href="#aI"/><use transform="matrix(0.0126953125,0,0,0.0126953125,31.205078125,0)" xlink:href="#aZ"/><use transform="matrix(0.0126953125,0,0,0.0126953125,47.37890625,0)" xlink:href="#aI"/><use transform="matrix(0.0126953125,0,0,0.0126953125,61.978515625,0)" xlink:href="#aG"/></g><path d="M613 24c-304 0-509-231-509-576 0-350 205-580 509-580 305 0 511 230 511 580 0 345-206 576-511 576zm0-161c226 0 329-195 329-415 0-222-103-419-329-419-223 0-326 196-326 419 0 220 103 415 326 415" id="ba"/><g id="n"><use transform="matrix(0.0126953125,0,0,0.0126953125,0,0)" xlink:href="#aX"/><use transform="matrix(0.0126953125,0,0,0.0126953125,16.4404296875,0)" xlink:href="#ba"/><use transform="matrix(0.0126953125,0,0,0.0126953125,32.0302734375,0)" xlink:href="#ba"/><use transform="matrix(0.0126953125,0,0,0.0126953125,47.6201171875,0)" xlink:href="#aH"/><use transform="matrix(0.0126953125,0,0,0.0126953125,56.9765625,0)" xlink:href="#aT"/><use transform="matrix(0.0126953125,0,0,0.0126953125,72.896484375,0)" xlink:href="#aE"/><use transform="matrix(0.0126953125,0,0,0.0126953125,79.193359375,0)" xlink:href="#aL"/><use transform="matrix(0.0126953125,0,0,0.0126953125,94.5546875,0)" xlink:href="#aI"/><use transform="matrix(0.0126953125,0,0,0.0126953125,109.154296875,0)" xlink:href="#aF"/><use transform="matrix(0.0126953125,0,0,0.0126953125,122.8779296875,0)" xlink:href="#aE"/></g><g id="o"><use transform="matrix(0.0126953125,0,0,0.0126953125,0,0)" xlink:href="#aN"/><use transform="matrix(0.0126953125,0,0,0.0126953125,15.3740234375,0)" xlink:href="#aI"/><use transform="matrix(0.0126953125,0,0,0.0126953125,29.9736328125,0)" xlink:href="#aH"/><use transform="matrix(0.0126953125,0,0,0.0126953125,40.16796875,0)" xlink:href="#aE"/><use transform="matrix(0.0126953125,0,0,0.0126953125,46.46484375,0)" xlink:href="#aI"/><use transform="matrix(0.0126953125,0,0,0.0126953125,61.064453125,0)" xlink:href="#aL"/></g><path d="M180 0v-1490h908v168H370v486h669v168H370v500h727V0H180" id="bb"/><path d="M180 0v-1490h270l367 940c28 72 75 218 110 339 35-117 81-264 110-339l362-940h271V0h-187c2-448-5-837 7-1287-157 497-311 829-483 1287H842C666-458 514-784 354-1284c12 438 5 843 7 1284H180" id="bc"/><path d="M98-1322v-168h1126v168H757V0H567v-1322H98" id="bd"/><g id="p"><use transform="matrix(0.0126953125,0,0,0.0126953125,0,0)" xlink:href="#bb"/><use transform="matrix(0.0126953125,0,0,0.0126953125,15.6279296875,0)" xlink:href="#bc"/><use transform="matrix(0.0126953125,0,0,0.0126953125,39.1142578125,0)" xlink:href="#bd"/></g><g id="q"><use transform="matrix(0.0126953125,0,0,0.0126953125,0,0)" xlink:href="#aT"/><use transform="matrix(0.0126953125,0,0,0.0126953125,15.919921875,0)" xlink:href="#aE"/><use transform="matrix(0.0126953125,0,0,0.0126953125,22.216796875,0)" xlink:href="#aZ"/><use transform="matrix(0.0126953125,0,0,0.0126953125,38.13671875,0)" xlink:href="#aE"/><use transform="matrix(0.0126953125,0,0,0.0126953125,44.43359375,0)" xlink:href="#aQ"/><use transform="matrix(0.0126953125,0,0,0.0126953125,67.208984375,0)" xlink:href="#aZ"/><use transform="matrix(0.0126953125,0,0,0.0126953125,83.12890625,0)" xlink:href="#aE"/><use transform="matrix(0.0126953125,0,0,0.0126953125,89.42578125,0)" xlink:href="#aL"/></g><g id="r"><use transform="matrix(0.0126953125,0,0,0.0126953125,0,0)" xlink:href="#aX"/><use transform="matrix(0.0126953125,0,0,0.0126953125,16.4404296875,0)" xlink:href="#ba"/><use transform="matrix(0.0126953125,0,0,0.0126953125,32.0302734375,0)" xlink:href="#aH"/><use transform="matrix(0.0126953125,0,0,0.0126953125,42.224609375,0)" xlink:href="#aJ"/><use transform="matrix(0.0126953125,0,0,0.0126953125,48.521484375,0)" xlink:href="#aI"/><use transform="matrix(0.0126953125,0,0,0.0126953125,63.12109375,0)" xlink:href="#aZ"/></g><g id="s"><use transform="matrix(0.0126953125,0,0,0.0126953125,0,0)" xlink:href="#aD"/><use transform="matrix(0.0126953125,0,0,0.0126953125,15.9453125,0)" xlink:href="#aI"/><use transform="matrix(0.0126953125,0,0,0.0126953125,30.544921875,0)" xlink:href="#aP"/><use transform="matrix(0.0126953125,0,0,0.0126953125,46.46484375,0)" xlink:href="#aO"/><use transform="matrix(0.0126953125,0,0,0.0126953125,61.8388671875,0)" xlink:href="#aL"/><use transform="matrix(0.0126953125,0,0,0.0126953125,77.2001953125,0)" xlink:href="#aD"/><use transform="matrix(0.0126953125,0,0,0.0126953125,93.1455078125,0)" xlink:href="#aI"/><use transform="matrix(0.0126953125,0,0,0.0126953125,107.7451171875,0)" xlink:href="#aL"/></g><path d="M218-607c0-325 108-727 258-974h175c-155 315-250 682-250 974 0 265 78 531 250 886H476C306-10 218-315 218-607" id="be"/><g id="t"><use transform="matrix(0.0126953125,0,0,0.0126953125,0,0)" xlink:href="#be"/><use transform="matrix(0.0126953125,0,0,0.0126953125,9.4833984375,0)" xlink:href="#aF"/><use transform="matrix(0.0126953125,0,0,0.0126953125,23.20703125,0)" xlink:href="#aC"/><use transform="matrix(0.0126953125,0,0,0.0126953125,38.365234375,0)" xlink:href="#aG"/><use transform="matrix(0.0126953125,0,0,0.0126953125,46.87109375,0)" xlink:href="#aE"/><use transform="matrix(0.0126953125,0,0,0.0126953125,53.16796875,0)" xlink:href="#aI"/><use transform="matrix(0.0126953125,0,0,0.0126953125,67.767578125,0)" xlink:href="#aZ"/></g><g id="u"><use transform="matrix(0.0126953125,0,0,0.0126953125,0,0)" xlink:href="#aF"/><use transform="matrix(0.0126953125,0,0,0.0126953125,13.7236328125,0)" xlink:href="#ba"/><use transform="matrix(0.0126953125,0,0,0.0126953125,29.3134765625,0)" xlink:href="#aH"/><use transform="matrix(0.0126953125,0,0,0.0126953125,38.669921875,0)" xlink:href="#aC"/></g><g id="v"><use transform="matrix(0.0126953125,0,0,0.0126953125,0,0)" xlink:href="#aF"/><use transform="matrix(0.0126953125,0,0,0.0126953125,13.7236328125,0)" xlink:href="#aC"/><use transform="matrix(0.0126953125,0,0,0.0126953125,28.8818359375,0)" xlink:href="#aJ"/><use transform="matrix(0.0126953125,0,0,0.0126953125,35.1787109375,0)" xlink:href="#aC"/><use transform="matrix(0.0126953125,0,0,0.0126953125,50.3369140625,0)" xlink:href="#aF"/><use transform="matrix(0.0126953125,0,0,0.0126953125,64.060546875,0)" xlink:href="#aI"/><use transform="matrix(0.0126953125,0,0,0.0126953125,78.66015625,0)" xlink:href="#aE"/></g><path d="M140 405l46-156c120 36 205 19 263-150l32-93L54-1118h197c107 313 237 620 324 950 87-331 219-637 326-950h196L606 167c-68 178-176 259-334 259-64 0-113-12-132-21" id="bf"/><path d="M96 279C273-86 346-350 346-607c0-292-95-659-250-974h175c150 246 258 650 258 974 0 297-91 602-258 886H96" id="bg"/><g id="w"><use transform="matrix(0.0126953125,0,0,0.0126953125,0,0)" xlink:href="#aZ"/><use transform="matrix(0.0126953125,0,0,0.0126953125,15.919921875,0)" xlink:href="#aC"/><use transform="matrix(0.0126953125,0,0,0.0126953125,31.078125,0)" xlink:href="#aJ"/><use transform="matrix(0.0126953125,0,0,0.0126953125,37.375,0)" xlink:href="#aI"/><use transform="matrix(0.0126953125,0,0,0.0126953125,51.59375,0)" xlink:href="#bf"/><use transform="matrix(0.0126953125,0,0,0.0126953125,66.0791015625,0)" xlink:href="#aI"/><use transform="matrix(0.0126953125,0,0,0.0126953125,80.6787109375,0)" xlink:href="#aL"/><use transform="matrix(0.0126953125,0,0,0.0126953125,96.0400390625,0)" xlink:href="#aI"/><use transform="matrix(0.0126953125,0,0,0.0126953125,110.6396484375,0)" xlink:href="#aL"/><use transform="matrix(0.0126953125,0,0,0.0126953125,126.0009765625,0)" xlink:href="#bg"/></g><g id="x"><use transform="matrix(0.0126953125,0,0,0.0126953125,0,0)" xlink:href="#aV"/><use transform="matrix(0.0126953125,0,0,0.0126953125,16.60546875,0)" xlink:href="#aO"/><use transform="matrix(0.0126953125,0,0,0.0126953125,31.9794921875,0)" xlink:href="#aP"/><use transform="matrix(0.0126953125,0,0,0.0126953125,47.8994140625,0)" xlink:href="#aJ"/><use transform="matrix(0.0126953125,0,0,0.0126953125,54.1962890625,0)" xlink:href="#aE"/><use transform="matrix(0.0126953125,0,0,0.0126953125,60.4931640625,0)" xlink:href="#aF"/><use transform="matrix(0.0126953125,0,0,0.0126953125,74.216796875,0)" xlink:href="#aN"/></g><path d="M645 0H180v-1490h484c435 0 692 280 692 742 0 466-257 748-711 748zM370-168h263c363 0 539-218 539-580 0-358-176-574-521-574H370v1154" id="bh"/><g id="y"><use transform="matrix(0.0126953125,0,0,0.0126953125,0,0)" xlink:href="#bh"/><use transform="matrix(0.0126953125,0,0,0.0126953125,18.763671875,0)" xlink:href="#aI"/><use transform="matrix(0.0126953125,0,0,0.0126953125,33.36328125,0)" xlink:href="#aG"/><use transform="matrix(0.0126953125,0,0,0.0126953125,41.99609375,0)" xlink:href="#aI"/></g><g id="z"><use transform="matrix(0.0126953125,0,0,0.0126953125,0,0)" xlink:href="#aZ"/><use transform="matrix(0.0126953125,0,0,0.0126953125,16.173828125,0)" xlink:href="#aI"/><use transform="matrix(0.0126953125,0,0,0.0126953125,30.7734375,0)" xlink:href="#aT"/><use transform="matrix(0.0126953125,0,0,0.0126953125,46.693359375,0)" xlink:href="#aI"/></g><path d="M458 0L52-1490h194c108 439 233 855 324 1313 92-459 221-873 331-1313h216c110 438 234 854 330 1307 92-455 216-869 323-1307h196L1558 0h-221l-256-944c-26-95-50-200-73-331-22 122-44 223-73 331L680 0H458" id="bi"/><g id="A"><use transform="matrix(0.0126953125,0,0,0.0126953125,0,0)" xlink:href="#bi"/><use transform="matrix(0.0126953125,0,0,0.0126953125,24.298828125,0)" xlink:href="#aC"/><use transform="matrix(0.0126953125,0,0,0.0126953125,39.45703125,0)" xlink:href="#aP"/></g><g id="B"><use transform="matrix(0.0126953125,0,0,0.0126953125,0,0)" xlink:href="#bb"/><use transform="matrix(0.0126953125,0,0,0.0126953125,15.6279296875,0)" xlink:href="#bc"/><use transform="matrix(0.0126953125,0,0,0.0126953125,39.1142578125,0)" xlink:href="#bd"/></g><g id="C"><use transform="matrix(0.0126953125,0,0,0.0126953125,0,0)" xlink:href="#aX"/><use transform="matrix(0.0126953125,0,0,0.0126953125,17.46875,0)" xlink:href="#aI"/><use transform="matrix(0.0126953125,0,0,0.0126953125,32.068359375,0)" xlink:href="#aP"/></g><g id="D"><use transform="matrix(0.0126953125,0,0,0.0126953125,0,0)" xlink:href="#aV"/><use transform="matrix(0.0126953125,0,0,0.0126953125,16.4658203125,0)" xlink:href="#aC"/><use transform="matrix(0.0126953125,0,0,0.0126953125,31.6240234375,0)" xlink:href="#aQ"/><use transform="matrix(0.0126953125,0,0,0.0126953125,54.3994140625,0)" xlink:href="#aI"/><use transform="matrix(0.0126953125,0,0,0.0126953125,68.9990234375,0)" xlink:href="#aZ"/><use transform="matrix(0.0126953125,0,0,0.0126953125,85.1728515625,0)" xlink:href="#aI"/><use transform="matrix(0.0126953125,0,0,0.0126953125,99.7724609375,0)" xlink:href="#aH"/><use transform="matrix(0.0126953125,0,0,0.0126953125,109.560546875,0)" xlink:href="#aI"/><use transform="matrix(0.0126953125,0,0,0.0126953125,124.16015625,0)" xlink:href="#aL"/></g><g id="E"><use transform="matrix(0.0126953125,0,0,0.0126953125,0,0)" xlink:href="#aW"/><use transform="matrix(0.0126953125,0,0,0.0126953125,16.681640625,0)" xlink:href="#aE"/><use transform="matrix(0.0126953125,0,0,0.0126953125,22.978515625,0)" xlink:href="#aG"/><use transform="matrix(0.0126953125,0,0,0.0126953125,31.484375,0)" xlink:href="#aO"/><use transform="matrix(0.0126953125,0,0,0.0126953125,46.8583984375,0)" xlink:href="#aI"/><use transform="matrix(0.0126953125,0,0,0.0126953125,61.4580078125,0)" xlink:href="#aF"/><use transform="matrix(0.0126953125,0,0,0.0126953125,75.181640625,0)" xlink:href="#aE"/></g><g id="F"><use transform="matrix(0.0126953125,0,0,0.0126953125,0,0)" xlink:href="#aT"/><use transform="matrix(0.0126953125,0,0,0.0126953125,15.919921875,0)" xlink:href="#aI"/><use transform="matrix(0.0126953125,0,0,0.0126953125,30.51953125,0)" xlink:href="#aL"/></g><g id="G"><use transform="matrix(0.0126953125,0,0,0.0126953125,0,0)" xlink:href="#aX"/><use transform="matrix(0.0126953125,0,0,0.0126953125,16.4404296875,0)" xlink:href="#aC"/><use transform="matrix(0.0126953125,0,0,0.0126953125,31.5986328125,0)" xlink:href="#aP"/><use transform="matrix(0.0126953125,0,0,0.0126953125,47.5185546875,0)" xlink:href="#aO"/><use transform="matrix(0.0126953125,0,0,0.0126953125,62.892578125,0)" xlink:href="#aG"/><use transform="matrix(0.0126953125,0,0,0.0126953125,71.3984375,0)" xlink:href="#aO"/><use transform="matrix(0.0126953125,0,0,0.0126953125,86.7724609375,0)" xlink:href="#aN"/><use transform="matrix(0.0126953125,0,0,0.0126953125,102.146484375,0)" xlink:href="#aI"/><use transform="matrix(0.0126953125,0,0,0.0126953125,116.74609375,0)" xlink:href="#aL"/></g><g id="H"><use transform="matrix(0.0126953125,0,0,0.0126953125,0,0)" xlink:href="#aW"/><use transform="matrix(0.0126953125,0,0,0.0126953125,16.681640625,0)" xlink:href="#bh"/><use transform="matrix(0.0126953125,0,0,0.0126953125,35.4453125,0)" xlink:href="#bc"/></g><g id="I"><use transform="matrix(0.0126953125,0,0,0.0126953125,0,0)" xlink:href="#ba"/><use transform="matrix(0.0126953125,0,0,0.0126953125,15.58984375,0)" xlink:href="#aJ"/><use transform="matrix(0.0126953125,0,0,0.0126953125,21.88671875,0)" xlink:href="#aC"/><use transform="matrix(0.0126953125,0,0,0.0126953125,37.044921875,0)" xlink:href="#aN"/></g><g id="J"><use transform="matrix(0.0126953125,0,0,0.0126953125,0,0)" xlink:href="#bh"/><use transform="matrix(0.0126953125,0,0,0.0126953125,18.763671875,0)" xlink:href="#aX"/><use transform="matrix(0.0126953125,0,0,0.0126953125,36.232421875,0)" xlink:href="#aX"/></g><g id="K"><use transform="matrix(0.0126953125,0,0,0.0126953125,0,0)" xlink:href="#aV"/><use transform="matrix(0.0126953125,0,0,0.0126953125,16.60546875,0)" xlink:href="#aO"/><use transform="matrix(0.0126953125,0,0,0.0126953125,31.9794921875,0)" xlink:href="#aF"/><use transform="matrix(0.0126953125,0,0,0.0126953125,45.703125,0)" xlink:href="#aM"/><use transform="matrix(0.0126953125,0,0,0.0126953125,59.388671875,0)" xlink:href="#aC"/><use transform="matrix(0.0126953125,0,0,0.0126953125,74.546875,0)" xlink:href="#aF"/><use transform="matrix(0.0126953125,0,0,0.0126953125,88.2705078125,0)" xlink:href="#aQ"/><use transform="matrix(0.0126953125,0,0,0.0126953125,111.0458984375,0)" xlink:href="#aI"/><use transform="matrix(0.0126953125,0,0,0.0126953125,125.6455078125,0)" xlink:href="#aF"/></g><g id="L"><use transform="matrix(0.0126953125,0,0,0.0126953125,0,0)" xlink:href="#aG"/><use transform="matrix(0.0126953125,0,0,0.0126953125,8.251953125,0)" xlink:href="#aC"/><use transform="matrix(0.0126953125,0,0,0.0126953125,23.41015625,0)" xlink:href="#aH"/><use transform="matrix(0.0126953125,0,0,0.0126953125,33.6044921875,0)" xlink:href="#aM"/><use transform="matrix(0.0126953125,0,0,0.0126953125,47.8740234375,0)" xlink:href="#aI"/><use transform="matrix(0.0126953125,0,0,0.0126953125,62.4736328125,0)" xlink:href="#aE"/><use transform="matrix(0.0126953125,0,0,0.0126953125,68.7705078125,0)" xlink:href="#aG"/></g><path d="M763 24c-353 0-583-224-583-531v-983h190v968c0 214 149 370 393 370 243 0 391-156 391-370v-968h190v983c0 307-230 531-581 531" id="bj"/><g id="M"><use transform="matrix(0.0126953125,0,0,0.0126953125,0,0)" xlink:href="#bj"/><use transform="matrix(0.0126953125,0,0,0.0126953125,19.34765625,0)" xlink:href="#aL"/><use transform="matrix(0.0126953125,0,0,0.0126953125,34.708984375,0)" xlink:href="#aE"/><use transform="matrix(0.0126953125,0,0,0.0126953125,41.005859375,0)" xlink:href="#aG"/></g><g id="N"><use transform="matrix(0.0126953125,0,0,0.0126953125,0,0)" xlink:href="#aQ"/><use transform="matrix(0.0126953125,0,0,0.0126953125,22.775390625,0)" xlink:href="#aC"/><use transform="matrix(0.0126953125,0,0,0.0126953125,37.93359375,0)" xlink:href="#aL"/><use transform="matrix(0.0126953125,0,0,0.0126953125,53.294921875,0)" xlink:href="#aD"/><use transform="matrix(0.0126953125,0,0,0.0126953125,69.240234375,0)" xlink:href="#aI"/><use transform="matrix(0.0126953125,0,0,0.0126953125,83.83984375,0)" xlink:href="#aJ"/><use transform="matrix(0.0126953125,0,0,0.0126953125,90.13671875,0)" xlink:href="#ba"/><use transform="matrix(0.0126953125,0,0,0.0126953125,105.7265625,0)" xlink:href="#aM"/><use transform="matrix(0.0126953125,0,0,0.0126953125,119.99609375,0)" xlink:href="#aI"/><use transform="matrix(0.0126953125,0,0,0.0126953125,134.595703125,0)" xlink:href="#aF"/><use transform="matrix(0.0126953125,0,0,0.0126953125,148.3193359375,0)" xlink:href="#aE"/><use transform="matrix(0.0126953125,0,0,0.0126953125,154.6162109375,0)" xlink:href="#aM"/><use transform="matrix(0.0126953125,0,0,0.0126953125,168.8857421875,0)" xlink:href="#aI"/><use transform="matrix(0.0126953125,0,0,0.0126953125,183.4853515625,0)" xlink:href="#aL"/></g><g id="O"><use transform="matrix(0.0126953125,0,0,0.0126953125,0,0)" xlink:href="#aJ"/><use transform="matrix(0.0126953125,0,0,0.0126953125,6.296875,0)" xlink:href="#ba"/><use transform="matrix(0.0126953125,0,0,0.0126953125,21.88671875,0)" xlink:href="#aD"/><use transform="matrix(0.0126953125,0,0,0.0126953125,37.83203125,0)" xlink:href="#aE"/><use transform="matrix(0.0126953125,0,0,0.0126953125,44.12890625,0)" xlink:href="#aF"/><use transform="matrix(0.0126953125,0,0,0.0126953125,57.8525390625,0)" xlink:href="#aG"/><use transform="matrix(0.0126953125,0,0,0.0126953125,66.3583984375,0)" xlink:href="#aE"/><use transform="matrix(0.0126953125,0,0,0.0126953125,72.6552734375,0)" xlink:href="#aM"/></g><g id="P"><use transform="matrix(0.0126953125,0,0,0.0126953125,0,0)" xlink:href="#aF"/><use transform="matrix(0.0126953125,0,0,0.0126953125,13.7236328125,0)" xlink:href="#aC"/><use transform="matrix(0.0126953125,0,0,0.0126953125,28.8818359375,0)" xlink:href="#aF"/><use transform="matrix(0.0126953125,0,0,0.0126953125,42.60546875,0)" xlink:href="#aO"/><use transform="matrix(0.0126953125,0,0,0.0126953125,57.9794921875,0)" xlink:href="#aI"/><use transform="matrix(0.0126953125,0,0,0.0126953125,72.5791015625,0)" xlink:href="#aE"/></g><g id="Q"><use transform="matrix(0.0126953125,0,0,0.0126953125,0,0)" xlink:href="#aM"/><use transform="matrix(0.0126953125,0,0,0.0126953125,13.685546875,0)" xlink:href="#aC"/><use transform="matrix(0.0126953125,0,0,0.0126953125,28.84375,0)" xlink:href="#aP"/><use transform="matrix(0.0126953125,0,0,0.0126953125,44.763671875,0)" xlink:href="#aO"/><use transform="matrix(0.0126953125,0,0,0.0126953125,60.1376953125,0)" xlink:href="#aG"/><use transform="matrix(0.0126953125,0,0,0.0126953125,68.6435546875,0)" xlink:href="#aO"/><use transform="matrix(0.0126953125,0,0,0.0126953125,84.017578125,0)" xlink:href="#aN"/><use transform="matrix(0.0126953125,0,0,0.0126953125,99.3916015625,0)" xlink:href="#aI"/><use transform="matrix(0.0126953125,0,0,0.0126953125,113.9912109375,0)" xlink:href="#aL"/></g><g id="R"><use transform="matrix(0.0126953125,0,0,0.0126953125,0,0)" xlink:href="#aV"/><use transform="matrix(0.0126953125,0,0,0.0126953125,16.4658203125,0)" xlink:href="#aC"/><use transform="matrix(0.0126953125,0,0,0.0126953125,31.6240234375,0)" xlink:href="#aL"/><use transform="matrix(0.0126953125,0,0,0.0126953125,46.9853515625,0)" xlink:href="#aC"/><use transform="matrix(0.0126953125,0,0,0.0126953125,62.1435546875,0)" xlink:href="#aG"/><use transform="matrix(0.0126953125,0,0,0.0126953125,70.7763671875,0)" xlink:href="#aI"/><use transform="matrix(0.0126953125,0,0,0.0126953125,85.3759765625,0)" xlink:href="#aZ"/><use transform="matrix(0.0126953125,0,0,0.0126953125,101.5498046875,0)" xlink:href="#aI"/><use transform="matrix(0.0126953125,0,0,0.0126953125,116.1494140625,0)" xlink:href="#aL"/></g><g id="S"><use transform="matrix(0.0126953125,0,0,0.0126953125,0,0)" xlink:href="#aG"/><use transform="matrix(0.0126953125,0,0,0.0126953125,8.505859375,0)" xlink:href="#aE"/><use transform="matrix(0.0126953125,0,0,0.0126953125,14.802734375,0)" xlink:href="#aG"/><use transform="matrix(0.0126953125,0,0,0.0126953125,23.30859375,0)" xlink:href="#aE"/><use transform="matrix(0.0126953125,0,0,0.0126953125,29.60546875,0)" xlink:href="#aM"/></g><path d="M128 359l88-567h206L266 359H128" id="bk"/><g id="T"><use transform="matrix(0.0126953125,0,0,0.0126953125,0,0)" xlink:href="#aJ"/><use transform="matrix(0.0126953125,0,0,0.0126953125,6.296875,0)" xlink:href="#ba"/><use transform="matrix(0.0126953125,0,0,0.0126953125,21.88671875,0)" xlink:href="#aM"/><use transform="matrix(0.0126953125,0,0,0.0126953125,36.15625,0)" xlink:href="#aI"/><use transform="matrix(0.0126953125,0,0,0.0126953125,50.755859375,0)" xlink:href="#aF"/><use transform="matrix(0.0126953125,0,0,0.0126953125,64.4794921875,0)" xlink:href="#aE"/><use transform="matrix(0.0126953125,0,0,0.0126953125,70.7763671875,0)" xlink:href="#bk"/></g><g id="U"><use transform="matrix(0.0126953125,0,0,0.0126953125,0,0)" xlink:href="#aG"/><use transform="matrix(0.0126953125,0,0,0.0126953125,8.505859375,0)" xlink:href="#aE"/><use transform="matrix(0.0126953125,0,0,0.0126953125,14.802734375,0)" xlink:href="#aQ"/></g><g id="V"><use transform="matrix(0.0126953125,0,0,0.0126953125,0,0)" xlink:href="#aZ"/><use transform="matrix(0.0126953125,0,0,0.0126953125,15.919921875,0)" xlink:href="#aC"/><use transform="matrix(0.0126953125,0,0,0.0126953125,31.078125,0)" xlink:href="#aJ"/><use transform="matrix(0.0126953125,0,0,0.0126953125,37.375,0)" xlink:href="#aI"/><use transform="matrix(0.0126953125,0,0,0.0126953125,51.59375,0)" xlink:href="#bf"/><use transform="matrix(0.0126953125,0,0,0.0126953125,66.0791015625,0)" xlink:href="#aI"/><use transform="matrix(0.0126953125,0,0,0.0126953125,80.6787109375,0)" xlink:href="#aL"/><use transform="matrix(0.0126953125,0,0,0.0126953125,96.0400390625,0)" xlink:href="#aI"/><use transform="matrix(0.0126953125,0,0,0.0126953125,110.6396484375,0)" xlink:href="#aL"/></g><g id="W"><use transform="matrix(0.0126953125,0,0,0.0126953125,0,0)" xlink:href="#aN"/><use transform="matrix(0.0126953125,0,0,0.0126953125,15.3740234375,0)" xlink:href="#aI"/><use transform="matrix(0.0126953125,0,0,0.0126953125,29.9736328125,0)" xlink:href="#aH"/><use transform="matrix(0.0126953125,0,0,0.0126953125,40.16796875,0)" xlink:href="#aE"/></g><g id="X"><use transform="matrix(0.0126953125,0,0,0.0126953125,0,0)" xlink:href="#aP"/><use transform="matrix(0.0126953125,0,0,0.0126953125,15.919921875,0)" xlink:href="#aC"/><use transform="matrix(0.0126953125,0,0,0.0126953125,31.078125,0)" xlink:href="#aH"/><use transform="matrix(0.0126953125,0,0,0.0126953125,41.2724609375,0)" xlink:href="#aE"/><use transform="matrix(0.0126953125,0,0,0.0126953125,47.5693359375,0)" xlink:href="#aM"/><use transform="matrix(0.0126953125,0,0,0.0126953125,61.8388671875,0)" xlink:href="#aO"/><use transform="matrix(0.0126953125,0,0,0.0126953125,77.212890625,0)" xlink:href="#aG"/><use transform="matrix(0.0126953125,0,0,0.0126953125,85.71875,0)" xlink:href="#aL"/><use transform="matrix(0.0126953125,0,0,0.0126953125,100.69921875,0)" xlink:href="#bf"/><use transform="matrix(0.0126953125,0,0,0.0126953125,115.1845703125,0)" xlink:href="#aI"/></g><g id="Y"><use transform="matrix(0.0126953125,0,0,0.0126953125,0,0)" xlink:href="#aV"/><use transform="matrix(0.0126953125,0,0,0.0126953125,16.4658203125,0)" xlink:href="#aC"/><use transform="matrix(0.0126953125,0,0,0.0126953125,31.6240234375,0)" xlink:href="#aJ"/><use transform="matrix(0.0126953125,0,0,0.0126953125,37.9208984375,0)" xlink:href="#aI"/><use transform="matrix(0.0126953125,0,0,0.0126953125,52.5205078125,0)" xlink:href="#aZ"/><use transform="matrix(0.0126953125,0,0,0.0126953125,68.4404296875,0)" xlink:href="#ba"/><use transform="matrix(0.0126953125,0,0,0.0126953125,84.0302734375,0)" xlink:href="#aH"/><use transform="matrix(0.0126953125,0,0,0.0126953125,93.818359375,0)" xlink:href="#aI"/><use transform="matrix(0.0126953125,0,0,0.0126953125,108.41796875,0)" xlink:href="#aL"/></g><g id="Z"><use transform="matrix(0.0126953125,0,0,0.0126953125,0,0)" xlink:href="#aM"/><use transform="matrix(0.0126953125,0,0,0.0126953125,13.685546875,0)" xlink:href="#aC"/><use transform="matrix(0.0126953125,0,0,0.0126953125,28.84375,0)" xlink:href="#aD"/><use transform="matrix(0.0126953125,0,0,0.0126953125,44.7890625,0)" xlink:href="#aE"/><use transform="matrix(0.0126953125,0,0,0.0126953125,51.0859375,0)" xlink:href="#aI"/><use transform="matrix(0.0126953125,0,0,0.0126953125,65.685546875,0)" xlink:href="#aG"/><use transform="matrix(0.0126953125,0,0,0.0126953125,74.318359375,0)" xlink:href="#aI"/><use transform="matrix(0.0126953125,0,0,0.0126953125,88.91796875,0)" xlink:href="#aL"/></g><g id="aa"><use transform="matrix(0.0126953125,0,0,0.0126953125,0,0)" xlink:href="#aZ"/><use transform="matrix(0.0126953125,0,0,0.0126953125,15.919921875,0)" xlink:href="#aC"/><use transform="matrix(0.0126953125,0,0,0.0126953125,31.078125,0)" xlink:href="#aJ"/><use transform="matrix(0.0126953125,0,0,0.0126953125,37.375,0)" xlink:href="#aI"/><use transform="matrix(0.0126953125,0,0,0.0126953125,51.59375,0)" xlink:href="#bf"/><use transform="matrix(0.0126953125,0,0,0.0126953125,66.0791015625,0)" xlink:href="#aI"/><use transform="matrix(0.0126953125,0,0,0.0126953125,80.6787109375,0)" xlink:href="#aL"/><use transform="matrix(0.0126953125,0,0,0.0126953125,96.0400390625,0)" xlink:href="#aI"/><use transform="matrix(0.0126953125,0,0,0.0126953125,110.6396484375,0)" xlink:href="#aL"/><use transform="matrix(0.0126953125,0,0,0.0126953125,126.0009765625,0)" xlink:href="#bk"/></g><g id="ab"><use transform="matrix(0.0126953125,0,0,0.0126953125,0,0)" xlink:href="#aE"/><use transform="matrix(0.0126953125,0,0,0.0126953125,6.296875,0)" xlink:href="#aL"/><use transform="matrix(0.0126953125,0,0,0.0126953125,21.658203125,0)" xlink:href="#aS"/><use transform="matrix(0.0126953125,0,0,0.0126953125,30.51953125,0)" xlink:href="#ba"/><use transform="matrix(0.0126953125,0,0,0.0126953125,46.109375,0)" xlink:href="#aH"/><use transform="matrix(0.0126953125,0,0,0.0126953125,56.3037109375,0)" xlink:href="#aQ"/><use transform="matrix(0.0126953125,0,0,0.0126953125,79.0791015625,0)" xlink:href="#aI"/><use transform="matrix(0.0126953125,0,0,0.0126953125,93.6787109375,0)" xlink:href="#aF"/><use transform="matrix(0.0126953125,0,0,0.0126953125,107.40234375,0)" xlink:href="#aE"/></g><g id="ac"><use transform="matrix(0.0126953125,0,0,0.0126953125,0,0)" xlink:href="#aG"/><use transform="matrix(0.0126953125,0,0,0.0126953125,8.251953125,0)" xlink:href="#aC"/><use transform="matrix(0.0126953125,0,0,0.0126953125,23.41015625,0)" xlink:href="#aQ"/><use transform="matrix(0.0126953125,0,0,0.0126953125,46.185546875,0)" xlink:href="#aO"/><use transform="matrix(0.0126953125,0,0,0.0126953125,61.5595703125,0)" xlink:href="#aI"/><use transform="matrix(0.0126953125,0,0,0.0126953125,76.1591796875,0)" xlink:href="#aL"/></g><g id="ad"><use transform="matrix(0.0126953125,0,0,0.0126953125,0,0)" xlink:href="#aT"/><use transform="matrix(0.0126953125,0,0,0.0126953125,15.919921875,0)" xlink:href="#aE"/><use transform="matrix(0.0126953125,0,0,0.0126953125,22.216796875,0)" xlink:href="#aJ"/><use transform="matrix(0.0126953125,0,0,0.0126953125,28.513671875,0)" xlink:href="#aI"/><use transform="matrix(0.0126953125,0,0,0.0126953125,43.11328125,0)" xlink:href="#aZ"/><use transform="matrix(0.0126953125,0,0,0.0126953125,59.287109375,0)" xlink:href="#aI"/><use transform="matrix(0.0126953125,0,0,0.0126953125,73.88671875,0)" xlink:href="#aL"/><use transform="matrix(0.0126953125,0,0,0.0126953125,89.248046875,0)" xlink:href="#aD"/><use transform="matrix(0.0126953125,0,0,0.0126953125,105.193359375,0)" xlink:href="#aI"/><use transform="matrix(0.0126953125,0,0,0.0126953125,119.79296875,0)" xlink:href="#aL"/></g><g id="ae"><use transform="matrix(0.0126953125,0,0,0.0126953125,0,0)" xlink:href="#aG"/><use transform="matrix(0.0126953125,0,0,0.0126953125,8.505859375,0)" xlink:href="#aE"/><use transform="matrix(0.0126953125,0,0,0.0126953125,14.802734375,0)" xlink:href="#aQ"/></g><g id="af"><use transform="matrix(0.0126953125,0,0,0.0126953125,0,0)" xlink:href="#aV"/><use transform="matrix(0.0126953125,0,0,0.0126953125,16.4658203125,0)" xlink:href="#aC"/><use transform="matrix(0.0126953125,0,0,0.0126953125,31.6240234375,0)" xlink:href="#aJ"/><use transform="matrix(0.0126953125,0,0,0.0126953125,37.9208984375,0)" xlink:href="#aI"/><use transform="matrix(0.0126953125,0,0,0.0126953125,52.1396484375,0)" xlink:href="#bf"/><use transform="matrix(0.0126953125,0,0,0.0126953125,66.625,0)" xlink:href="#aI"/><use transform="matrix(0.0126953125,0,0,0.0126953125,81.224609375,0)" xlink:href="#aL"/><use transform="matrix(0.0126953125,0,0,0.0126953125,96.5859375,0)" xlink:href="#aI"/><use transform="matrix(0.0126953125,0,0,0.0126953125,111.185546875,0)" xlink:href="#aL"/></g><g id="ag"><use transform="matrix(0.0126953125,0,0,0.0126953125,0,0)" xlink:href="#aX"/><use transform="matrix(0.0126953125,0,0,0.0126953125,16.4404296875,0)" xlink:href="#aC"/><use transform="matrix(0.0126953125,0,0,0.0126953125,31.5986328125,0)" xlink:href="#aF"/><use transform="matrix(0.0126953125,0,0,0.0126953125,45.322265625,0)" xlink:href="#aC"/><use transform="matrix(0.0126953125,0,0,0.0126953125,60.48046875,0)" xlink:href="#aN"/><use transform="matrix(0.0126953125,0,0,0.0126953125,75.8544921875,0)" xlink:href="#aI"/><use transform="matrix(0.0126953125,0,0,0.0126953125,90.4541015625,0)" xlink:href="#aG"/><use transform="matrix(0.0126953125,0,0,0.0126953125,99.0869140625,0)" xlink:href="#aI"/><use transform="matrix(0.0126953125,0,0,0.0126953125,113.6865234375,0)" xlink:href="#aL"/></g><g id="ah"><use transform="matrix(0.0126953125,0,0,0.0126953125,0,0)" xlink:href="#bd"/><use transform="matrix(0.0126953125,0,0,0.0126953125,16.783203125,0)" xlink:href="#aE"/><use transform="matrix(0.0126953125,0,0,0.0126953125,23.080078125,0)" xlink:href="#aQ"/></g><g id="ai"><use transform="matrix(0.0126953125,0,0,0.0126953125,0,0)" xlink:href="#aJ"/><use transform="matrix(0.0126953125,0,0,0.0126953125,6.296875,0)" xlink:href="#aI"/><use transform="matrix(0.0126953125,0,0,0.0126953125,20.515625,0)" xlink:href="#bf"/><use transform="matrix(0.0126953125,0,0,0.0126953125,35.0009765625,0)" xlink:href="#aI"/><use transform="matrix(0.0126953125,0,0,0.0126953125,49.6005859375,0)" xlink:href="#aL"/><use transform="matrix(0.0126953125,0,0,0.0126953125,64.9619140625,0)" xlink:href="#aI"/><use transform="matrix(0.0126953125,0,0,0.0126953125,79.5615234375,0)" xlink:href="#aL"/></g><g id="aj"><use transform="matrix(0.0126953125,0,0,0.0126953125,0,0)" xlink:href="#aQ"/><use transform="matrix(0.0126953125,0,0,0.0126953125,22.775390625,0)" xlink:href="#aC"/><use transform="matrix(0.0126953125,0,0,0.0126953125,37.93359375,0)" xlink:href="#aQ"/><use transform="matrix(0.0126953125,0,0,0.0126953125,60.708984375,0)" xlink:href="#aP"/><use transform="matrix(0.0126953125,0,0,0.0126953125,76.62890625,0)" xlink:href="#aO"/><use transform="matrix(0.0126953125,0,0,0.0126953125,92.0029296875,0)" xlink:href="#aI"/><use transform="matrix(0.0126953125,0,0,0.0126953125,106.6025390625,0)" xlink:href="#aG"/></g><g id="ak"><use transform="matrix(0.0126953125,0,0,0.0126953125,0,0)" xlink:href="#aH"/><use transform="matrix(0.0126953125,0,0,0.0126953125,9.3564453125,0)" xlink:href="#aC"/><use transform="matrix(0.0126953125,0,0,0.0126953125,24.5146484375,0)" xlink:href="#aM"/><use transform="matrix(0.0126953125,0,0,0.0126953125,38.7841796875,0)" xlink:href="#aI"/><use transform="matrix(0.0126953125,0,0,0.0126953125,53.3837890625,0)" xlink:href="#aZ"/></g><g id="al"><use transform="matrix(0.0126953125,0,0,0.0126953125,0,0)" xlink:href="#aT"/><use transform="matrix(0.0126953125,0,0,0.0126953125,15.919921875,0)" xlink:href="#aC"/><use transform="matrix(0.0126953125,0,0,0.0126953125,31.078125,0)" xlink:href="#aL"/><use transform="matrix(0.0126953125,0,0,0.0126953125,46.439453125,0)" xlink:href="#aD"/><use transform="matrix(0.0126953125,0,0,0.0126953125,62.384765625,0)" xlink:href="#aI"/><use transform="matrix(0.0126953125,0,0,0.0126953125,76.984375,0)" xlink:href="#aL"/></g><g id="am"><use transform="matrix(0.0126953125,0,0,0.0126953125,0,0)" xlink:href="#aQ"/><use transform="matrix(0.0126953125,0,0,0.0126953125,22.775390625,0)" xlink:href="#aC"/><use transform="matrix(0.0126953125,0,0,0.0126953125,37.93359375,0)" xlink:href="#aG"/><use transform="matrix(0.0126953125,0,0,0.0126953125,46.185546875,0)" xlink:href="#ba"/><use transform="matrix(0.0126953125,0,0,0.0126953125,61.775390625,0)" xlink:href="#aT"/><use transform="matrix(0.0126953125,0,0,0.0126953125,77.6953125,0)" xlink:href="#aI"/></g><g id="an"><use transform="matrix(0.0126953125,0,0,0.0126953125,0,0)" xlink:href="#bc"/><use transform="matrix(0.0126953125,0,0,0.0126953125,23.486328125,0)" xlink:href="#bh"/><use transform="matrix(0.0126953125,0,0,0.0126953125,42.25,0)" xlink:href="#aW"/></g><path d="M52 0l541-1490h220L1361 0h-200l-149-416H398L254 0H52zm404-582h497c-103-290-145-390-251-756-108 377-145 460-246 756" id="bl"/><g id="ao"><use transform="matrix(0.0126953125,0,0,0.0126953125,0,0)" xlink:href="#bl"/><use transform="matrix(0.0126953125,0,0,0.0126953125,17.9384765625,0)" xlink:href="#aT"/><use transform="matrix(0.0126953125,0,0,0.0126953125,33.8583984375,0)" xlink:href="#aQ"/><use transform="matrix(0.0126953125,0,0,0.0126953125,56.6337890625,0)" xlink:href="#aE"/><use transform="matrix(0.0126953125,0,0,0.0126953125,62.9306640625,0)" xlink:href="#aL"/></g><g id="ap"><use transform="matrix(0.0126953125,0,0,0.0126953125,0,0)" xlink:href="#bc"/><use transform="matrix(0.0126953125,0,0,0.0126953125,23.486328125,0)" xlink:href="#bh"/><use transform="matrix(0.0126953125,0,0,0.0126953125,42.25,0)" xlink:href="#aW"/></g><g id="aq"><use transform="matrix(0.0126953125,0,0,0.0126953125,0,0)" xlink:href="#aQ"/><use transform="matrix(0.0126953125,0,0,0.0126953125,22.775390625,0)" xlink:href="#aC"/><use transform="matrix(0.0126953125,0,0,0.0126953125,37.93359375,0)" xlink:href="#aJ"/><use transform="matrix(0.0126953125,0,0,0.0126953125,44.23046875,0)" xlink:href="#aI"/><use transform="matrix(0.0126953125,0,0,0.0126953125,58.830078125,0)" xlink:href="#aM"/><use transform="matrix(0.0126953125,0,0,0.0126953125,73.099609375,0)" xlink:href="#aO"/><use transform="matrix(0.0126953125,0,0,0.0126953125,88.4736328125,0)" xlink:href="#aM"/><use transform="matrix(0.0126953125,0,0,0.0126953125,102.7431640625,0)" xlink:href="#aI"/><use transform="matrix(0.0126953125,0,0,0.0126953125,117.3427734375,0)" xlink:href="#aL"/></g><g id="ar"><use transform="matrix(0.0126953125,0,0,0.0126953125,0,0)" xlink:href="#aE"/><use transform="matrix(0.0126953125,0,0,0.0126953125,6.296875,0)" xlink:href="#aL"/><use transform="matrix(0.0126953125,0,0,0.0126953125,21.658203125,0)" xlink:href="#aZ"/><use transform="matrix(0.0126953125,0,0,0.0126953125,37.578125,0)" xlink:href="#aO"/><use transform="matrix(0.0126953125,0,0,0.0126953125,52.9521484375,0)" xlink:href="#aG"/></g><g id="as"><use transform="matrix(0.0126953125,0,0,0.0126953125,0,0)" xlink:href="#aT"/><use transform="matrix(0.0126953125,0,0,0.0126953125,15.919921875,0)" xlink:href="#aI"/><use transform="matrix(0.0126953125,0,0,0.0126953125,30.51953125,0)" xlink:href="#aG"/><use transform="matrix(0.0126953125,0,0,0.0126953125,39.15234375,0)" xlink:href="#aI"/></g><g id="at"><use transform="matrix(0.0126953125,0,0,0.0126953125,0,0)" xlink:href="#aT"/><use transform="matrix(0.0126953125,0,0,0.0126953125,15.919921875,0)" xlink:href="#aI"/><use transform="matrix(0.0126953125,0,0,0.0126953125,30.51953125,0)" xlink:href="#aH"/><use transform="matrix(0.0126953125,0,0,0.0126953125,40.7138671875,0)" xlink:href="#aE"/></g><g id="au"><use transform="matrix(0.0126953125,0,0,0.0126953125,0,0)" xlink:href="#aZ"/><use transform="matrix(0.0126953125,0,0,0.0126953125,15.919921875,0)" xlink:href="#aC"/><use transform="matrix(0.0126953125,0,0,0.0126953125,31.078125,0)" xlink:href="#aJ"/><use transform="matrix(0.0126953125,0,0,0.0126953125,37.375,0)" xlink:href="#aI"/><use transform="matrix(0.0126953125,0,0,0.0126953125,51.59375,0)" xlink:href="#bf"/><use transform="matrix(0.0126953125,0,0,0.0126953125,66.0791015625,0)" xlink:href="#aI"/><use transform="matrix(0.0126953125,0,0,0.0126953125,80.6787109375,0)" xlink:href="#aL"/><use transform="matrix(0.0126953125,0,0,0.0126953125,96.0400390625,0)" xlink:href="#aI"/><use transform="matrix(0.0126953125,0,0,0.0126953125,110.6396484375,0)" xlink:href="#aL"/></g><g id="av"><use transform="matrix(0.0126953125,0,0,0.0126953125,0,0)" xlink:href="#aV"/><use transform="matrix(0.0126953125,0,0,0.0126953125,16.4658203125,0)" xlink:href="#aC"/><use transform="matrix(0.0126953125,0,0,0.0126953125,31.6240234375,0)" xlink:href="#aL"/><use transform="matrix(0.0126953125,0,0,0.0126953125,46.9853515625,0)" xlink:href="#aC"/><use transform="matrix(0.0126953125,0,0,0.0126953125,62.1435546875,0)" xlink:href="#aH"/><use transform="matrix(0.0126953125,0,0,0.0126953125,72.337890625,0)" xlink:href="#aP"/><use transform="matrix(0.0126953125,0,0,0.0126953125,88.2578125,0)" xlink:href="#aE"/><use transform="matrix(0.0126953125,0,0,0.0126953125,94.5546875,0)" xlink:href="#aG"/><use transform="matrix(0.0126953125,0,0,0.0126953125,103.1875,0)" xlink:href="#aI"/><use transform="matrix(0.0126953125,0,0,0.0126953125,117.787109375,0)" xlink:href="#aL"/></g><g id="aw"><use transform="matrix(0.0126953125,0,0,0.0126953125,0,0)" xlink:href="#aB"/><use transform="matrix(0.0126953125,0,0,0.0126953125,16.3515625,0)" xlink:href="#aC"/><use transform="matrix(0.0126953125,0,0,0.0126953125,31.509765625,0)" xlink:href="#aZ"/><use transform="matrix(0.0126953125,0,0,0.0126953125,47.4296875,0)" xlink:href="#ba"/><use transform="matrix(0.0126953125,0,0,0.0126953125,63.01953125,0)" xlink:href="#aH"/><use transform="matrix(0.0126953125,0,0,0.0126953125,73.2138671875,0)" xlink:href="#aG"/></g><path d="M180 0v-1490h190v644h782v-644h190V0h-190v-678H370V0H180" id="bm"/><g id="ax"><use transform="matrix(0.0126953125,0,0,0.0126953125,0,0)" xlink:href="#bm"/><use transform="matrix(0.0126953125,0,0,0.0126953125,19.322265625,0)" xlink:href="#aI"/><use transform="matrix(0.0126953125,0,0,0.0126953125,33.921875,0)" xlink:href="#aH"/><use transform="matrix(0.0126953125,0,0,0.0126953125,44.1162109375,0)" xlink:href="#aE"/><use transform="matrix(0.0126953125,0,0,0.0126953125,50.4130859375,0)" xlink:href="#aI"/><use transform="matrix(0.0126953125,0,0,0.0126953125,65.0126953125,0)" xlink:href="#aL"/><use transform="matrix(0.0126953125,0,0,0.0126953125,80.3740234375,0)" xlink:href="#bk"/></g><g id="ay"><use transform="matrix(0.0126953125,0,0,0.0126953125,0,0)" xlink:href="#bc"/><use transform="matrix(0.0126953125,0,0,0.0126953125,23.486328125,0)" xlink:href="#aE"/><use transform="matrix(0.0126953125,0,0,0.0126953125,29.783203125,0)" xlink:href="#aL"/><use transform="matrix(0.0126953125,0,0,0.0126953125,45.14453125,0)" xlink:href="#aD"/><use transform="matrix(0.0126953125,0,0,0.0126953125,61.08984375,0)" xlink:href="#aD"/><use transform="matrix(0.0126953125,0,0,0.0126953125,77.03515625,0)" xlink:href="#aO"/><use transform="matrix(0.0126953125,0,0,0.0126953125,92.4091796875,0)" xlink:href="#aI"/><use transform="matrix(0.0126953125,0,0,0.0126953125,107.0087890625,0)" xlink:href="#aL"/><use transform="matrix(0.0126953125,0,0,0.0126953125,122.3701171875,0)" xlink:href="#bk"/></g><g id="az"><use transform="matrix(0.0126953125,0,0,0.0126953125,0,0)" xlink:href="#aZ"/><use transform="matrix(0.0126953125,0,0,0.0126953125,15.919921875,0)" xlink:href="#aC"/><use transform="matrix(0.0126953125,0,0,0.0126953125,31.078125,0)" xlink:href="#aH"/></g><g id="aA"><use transform="matrix(0.0126953125,0,0,0.0126953125,0,0)" xlink:href="#aH"/><use transform="matrix(0.0126953125,0,0,0.0126953125,9.3564453125,0)" xlink:href="#aC"/><use transform="matrix(0.0126953125,0,0,0.0126953125,24.5146484375,0)" xlink:href="#aZ"/><use transform="matrix(0.0126953125,0,0,0.0126953125,40.4345703125,0)" xlink:href="#ba"/><use transform="matrix(0.0126953125,0,0,0.0126953125,56.0244140625,0)" xlink:href="#aH"/><use transform="matrix(0.0126953125,0,0,0.0126953125,66.21875,0)" xlink:href="#aG"/></g></defs></g></svg>